<svg id="visual" viewBox="0 0 900 600" width="900" height="600" xmlns="http://www.w3.org/2000/svg" xmlns:xlink="http://www.w3.org/1999/xlink" version="1.1"><g stroke-width="1" stroke-linejoin="bevel"><path d="M373 274L386 224L312 221Z" fill="#1d4e6b" stroke="#1d4e6b"></path><path d="M312 221L283 297L373 274Z" fill="#081a28" stroke="#081a28"></path><path d="M466 126L420 135L523 183Z" fill="#19435d" stroke="#19435d"></path><path d="M386 224L420 135L312 221Z" fill="#297ea6" stroke="#297ea6"></path><path d="M325 87L204 214L312 221Z" fill="#0c2435" stroke="#0c2435"></path><path d="M312 221L204 214L283 297Z" fill="#246688" stroke="#246688"></path><path d="M420 135L325 87L312 221Z" fill="#205a7a" stroke="#205a7a"></path><path d="M283 297L413 388L373 274Z" fill="#15384f" stroke="#15384f"></path><path d="M538 303L523 183L386 224Z" fill="#205a7a" stroke="#205a7a"></path><path d="M523 183L420 135L386 224Z" fill="#15384f" stroke="#15384f"></path><path d="M430 0L308 0L325 87Z" fill="#277297" stroke="#277297"></path><path d="M183 311L239 380L283 297Z" fill="#112e42" stroke="#112e42"></path><path d="M283 297L330 433L413 388Z" fill="#277297" stroke="#277297"></path><path d="M204 214L183 311L283 297Z" fill="#112e42" stroke="#112e42"></path><path d="M538 303L386 224L373 274Z" fill="#19435d" stroke="#19435d"></path><path d="M239 380L330 433L283 297Z" fill="#00101c" stroke="#00101c"></path><path d="M506 376L538 303L373 274Z" fill="#00101c" stroke="#00101c"></path><path d="M413 388L506 376L373 274Z" fill="#297ea6" stroke="#297ea6"></path><path d="M520 489L506 376L413 388Z" fill="#0c2435" stroke="#0c2435"></path><path d="M296 511L369 468L330 433Z" fill="#297ea6" stroke="#297ea6"></path><path d="M330 433L369 468L413 388Z" fill="#19435d" stroke="#19435d"></path><path d="M325 87L185 80L204 214Z" fill="#1d4e6b" stroke="#1d4e6b"></path><path d="M204 214L114 265L183 311Z" fill="#19435d" stroke="#19435d"></path><path d="M95 219L114 265L204 214Z" fill="#081a28" stroke="#081a28"></path><path d="M124 504L207 513L239 380Z" fill="#1d4e6b" stroke="#1d4e6b"></path><path d="M325 87L308 0L185 80Z" fill="#1d4e6b" stroke="#1d4e6b"></path><path d="M430 0L325 87L420 135Z" fill="#277297" stroke="#277297"></path><path d="M185 80L95 219L204 214Z" fill="#277297" stroke="#277297"></path><path d="M532 0L430 0L466 126Z" fill="#0c2435" stroke="#0c2435"></path><path d="M466 126L430 0L420 135Z" fill="#277297" stroke="#277297"></path><path d="M207 513L296 511L239 380Z" fill="#112e42" stroke="#112e42"></path><path d="M239 380L296 511L330 433Z" fill="#0c2435" stroke="#0c2435"></path><path d="M634 386L630 283L538 303Z" fill="#1d4e6b" stroke="#1d4e6b"></path><path d="M538 303L630 283L523 183Z" fill="#246688" stroke="#246688"></path><path d="M572 0L532 0L635 77Z" fill="#00101c" stroke="#00101c"></path><path d="M630 283L628 179L523 183Z" fill="#112e42" stroke="#112e42"></path><path d="M308 0L167 0L185 80Z" fill="#205a7a" stroke="#205a7a"></path><path d="M185 80L70 94L95 219Z" fill="#15384f" stroke="#15384f"></path><path d="M369 468L520 489L413 388Z" fill="#277297" stroke="#277297"></path><path d="M506 376L634 386L538 303Z" fill="#246688" stroke="#246688"></path><path d="M436 600L520 489L369 468Z" fill="#0c2435" stroke="#0c2435"></path><path d="M532 0L466 126L635 77Z" fill="#081a28" stroke="#081a28"></path><path d="M78 411L239 380L183 311Z" fill="#277297" stroke="#277297"></path><path d="M78 411L183 311L114 265Z" fill="#081a28" stroke="#081a28"></path><path d="M167 0L70 94L185 80Z" fill="#19435d" stroke="#19435d"></path><path d="M0 287L114 265L95 219Z" fill="#00101c" stroke="#00101c"></path><path d="M0 287L78 411L114 265Z" fill="#0c2435" stroke="#0c2435"></path><path d="M520 489L634 386L506 376Z" fill="#1d4e6b" stroke="#1d4e6b"></path><path d="M630 283L715 161L628 179Z" fill="#1d4e6b" stroke="#1d4e6b"></path><path d="M634 386L663 307L630 283Z" fill="#0c2435" stroke="#0c2435"></path><path d="M635 77L466 126L523 183Z" fill="#246688" stroke="#246688"></path><path d="M628 179L635 77L523 183Z" fill="#15384f" stroke="#15384f"></path><path d="M712 139L635 77L628 179Z" fill="#081a28" stroke="#081a28"></path><path d="M78 411L124 504L239 380Z" fill="#1d4e6b" stroke="#1d4e6b"></path><path d="M70 94L0 236L95 219Z" fill="#19435d" stroke="#19435d"></path><path d="M0 236L0 287L95 219Z" fill="#277297" stroke="#277297"></path><path d="M78 411L0 511L124 504Z" fill="#246688" stroke="#246688"></path><path d="M203 600L298 600L207 513Z" fill="#00101c" stroke="#00101c"></path><path d="M207 513L298 600L296 511Z" fill="#081a28" stroke="#081a28"></path><path d="M296 511L436 600L369 468Z" fill="#112e42" stroke="#112e42"></path><path d="M520 489L630 475L634 386Z" fill="#19435d" stroke="#19435d"></path><path d="M634 386L716 429L663 307Z" fill="#246688" stroke="#246688"></path><path d="M577 600L630 475L520 489Z" fill="#277297" stroke="#277297"></path><path d="M298 600L436 600L296 511Z" fill="#297ea6" stroke="#297ea6"></path><path d="M766 300L715 161L663 307Z" fill="#246688" stroke="#246688"></path><path d="M663 307L715 161L630 283Z" fill="#297ea6" stroke="#297ea6"></path><path d="M635 77L687 0L572 0Z" fill="#00101c" stroke="#00101c"></path><path d="M167 0L60 0L70 94Z" fill="#246688" stroke="#246688"></path><path d="M70 94L0 70L0 236Z" fill="#19435d" stroke="#19435d"></path><path d="M715 161L712 139L628 179Z" fill="#081a28" stroke="#081a28"></path><path d="M436 600L478 600L520 489Z" fill="#081a28" stroke="#081a28"></path><path d="M0 287L0 401L78 411Z" fill="#0c2435" stroke="#0c2435"></path><path d="M138 600L203 600L207 513Z" fill="#19435d" stroke="#19435d"></path><path d="M138 600L207 513L124 504Z" fill="#277297" stroke="#277297"></path><path d="M60 0L0 70L70 94Z" fill="#297ea6" stroke="#297ea6"></path><path d="M577 600L675 490L630 475Z" fill="#205a7a" stroke="#205a7a"></path><path d="M630 475L716 429L634 386Z" fill="#205a7a" stroke="#205a7a"></path><path d="M675 490L716 429L630 475Z" fill="#081a28" stroke="#081a28"></path><path d="M712 139L687 0L635 77Z" fill="#081a28" stroke="#081a28"></path><path d="M0 600L138 600L124 504Z" fill="#1d4e6b" stroke="#1d4e6b"></path><path d="M715 161L803 95L712 139Z" fill="#297ea6" stroke="#297ea6"></path><path d="M712 139L765 0L687 0Z" fill="#205a7a" stroke="#205a7a"></path><path d="M716 429L766 300L663 307Z" fill="#0c2435" stroke="#0c2435"></path><path d="M60 0L0 0L0 70Z" fill="#205a7a" stroke="#205a7a"></path><path d="M478 600L577 600L520 489Z" fill="#205a7a" stroke="#205a7a"></path><path d="M0 401L0 511L78 411Z" fill="#0c2435" stroke="#0c2435"></path><path d="M900 194L808 214L900 327Z" fill="#00101c" stroke="#00101c"></path><path d="M766 300L808 214L715 161Z" fill="#112e42" stroke="#112e42"></path><path d="M808 214L803 95L715 161Z" fill="#00101c" stroke="#00101c"></path><path d="M803 95L765 0L712 139Z" fill="#205a7a" stroke="#205a7a"></path><path d="M0 511L0 600L124 504Z" fill="#0c2435" stroke="#0c2435"></path><path d="M675 490L771 534L716 429Z" fill="#277297" stroke="#277297"></path><path d="M716 429L834 427L766 300Z" fill="#112e42" stroke="#112e42"></path><path d="M577 600L699 600L675 490Z" fill="#00101c" stroke="#00101c"></path><path d="M699 600L771 534L675 490Z" fill="#246688" stroke="#246688"></path><path d="M771 534L834 427L716 429Z" fill="#0c2435" stroke="#0c2435"></path><path d="M808 214L900 194L803 95Z" fill="#297ea6" stroke="#297ea6"></path><path d="M900 327L808 214L766 300Z" fill="#205a7a" stroke="#205a7a"></path><path d="M803 95L900 0L765 0Z" fill="#205a7a" stroke="#205a7a"></path><path d="M834 427L900 327L766 300Z" fill="#0c2435" stroke="#0c2435"></path><path d="M900 422L900 327L834 427Z" fill="#19435d" stroke="#19435d"></path><path d="M900 194L900 70L803 95Z" fill="#277297" stroke="#277297"></path><path d="M699 600L801 600L771 534Z" fill="#00101c" stroke="#00101c"></path><path d="M900 500L900 422L834 427Z" fill="#246688" stroke="#246688"></path><path d="M900 500L834 427L771 534Z" fill="#1d4e6b" stroke="#1d4e6b"></path><path d="M900 70L900 0L803 95Z" fill="#19435d" stroke="#19435d"></path><path d="M801 600L900 500L771 534Z" fill="#081a28" stroke="#081a28"></path><path d="M801 600L900 600L900 500Z" fill="#081a28" stroke="#081a28"></path></g></svg>